<?xml version="1.0" standalone="no"?>
<!DOCTYPE svg PUBLIC "-//W3C//DTD SVG 20010904//EN"
 "http://www.w3.org/TR/2001/REC-SVG-20010904/DTD/svg10.dtd">
<svg version="1.0" xmlns="http://www.w3.org/2000/svg"
 width="512.000000pt" height="512.000000pt" viewBox="0 0 512.000000 512.000000"
 preserveAspectRatio="xMidYMid meet">
<metadata>
Created by potrace 1.14, written by Peter Selinger 2001-2017
</metadata>
<g transform="translate(0.000000,512.000000) scale(0.100000,-0.100000)"
fill="#000000" stroke="none">
<path d="M2379 5116 c-2 -2 -40 -6 -83 -10 -44 -4 -82 -8 -85 -10 -3 -2 -31
-7 -61 -11 -30 -3 -75 -11 -100 -17 -25 -5 -56 -12 -70 -14 -57 -11 -311 -89
-335 -103 -5 -3 -15 -6 -21 -7 -24 -4 -245 -111 -334 -162 -349 -201 -643
-475 -861 -804 -53 -80 -82 -130 -151 -258 -32 -59 -103 -224 -129 -297 -31
-89 -87 -286 -95 -340 -5 -26 -9 -50 -9 -53 -28 -111 -40 -249 -39 -480 0
-183 3 -241 19 -345 3 -16 7 -43 9 -60 8 -55 45 -219 66 -290 11 -38 22 -77
24 -85 2 -8 18 -51 34 -95 202 -539 570 -991 1052 -1290 267 -165 569 -282
875 -340 166 -32 254 -39 470 -39 239 -1 338 8 545 52 289 62 574 179 832 342
475 302 829 740 1030 1275 16 44 31 88 33 98 2 9 7 22 10 27 3 5 8 18 10 27 2
10 11 46 20 80 20 78 26 102 30 130 2 11 5 29 9 40 8 28 20 113 33 228 10 91
10 408 1 505 -9 85 -22 172 -37 245 -6 28 -13 61 -15 75 -11 56 -50 190 -78
270 -189 534 -523 966 -990 1284 -54 36 -101 66 -105 66 -3 0 -14 6 -22 14
-20 18 -259 138 -331 166 -48 19 -255 92 -255 90 0 -1 -7 1 -15 4 -27 9 -186
46 -225 52 -21 3 -47 8 -59 10 -11 2 -41 7 -66 10 -25 3 -56 8 -70 10 -28 6
-456 15 -461 10z"/>
</g>
</svg>
